<svg xmlns="http://www.w3.org/2000/svg" fill="none" viewBox="0 0 36 37"><circle cx="18" cy="18.43" r="18" fill="#F0F3FF"/><g clip-path="url(#a)"><path fill="#183C75" d="M18 8.847c-5.525 0-10 4.4-10 9.827 0 4.342 2.865 8.025 6.838 9.323.5.093.683-.212.683-.472 0-.234-.009-.852-.013-1.671-2.781.592-3.368-1.319-3.368-1.319-.455-1.134-1.113-1.437-1.113-1.437-.905-.61.07-.597.07-.597 1.005.069 1.532 1.013 1.532 1.013.892 1.502 2.341 1.068 2.913.817.09-.636.347-1.068.633-1.314-2.22-.246-4.555-1.09-4.555-4.856 0-1.072.388-1.949 1.03-2.636-.113-.249-.45-1.248.087-2.601 0 0 .837-.264 2.75 1.007.8-.218 1.65-.326 2.5-.331.85.005 1.7.113 2.5.331 1.9-1.27 2.737-1.007 2.737-1.007.538 1.353.2 2.352.1 2.6a3.77 3.77 0 0 1 1.025 2.637c0 3.775-2.337 4.606-4.562 4.848.35.295.675.897.675 1.818 0 1.315-.013 2.372-.013 2.69 0 .258.175.566.688.468 4-1.29 6.863-4.975 6.863-9.311 0-5.427-4.477-9.827-10-9.827z"/></g><defs><clipPath id="a"><path fill="#fff" d="M0 0H20V20H0z" transform="translate(8 8.43)"/></clipPath></defs></svg>