<svg width="18" height="19" viewBox="0 0 18 19" fill="none" xmlns="http://www.w3.org/2000/svg">
<path fill-rule="evenodd" clip-rule="evenodd" d="M12.9788 8.99219C12.9788 6.68969 11.7488 4.76219 9.60376 4.25219V3.74219C9.60376 3.11969 9.10126 2.61719 8.47876 2.61719C7.85626 2.61719 7.35376 3.11969 7.35376 3.74219V4.25219C7.20219 4.29008 7.05595 4.34392 6.91501 4.39581L6.91501 4.39581L6.83626 4.42469L12.9788 10.5672V8.99219ZM8.47876 17.2422C9.30376 17.2422 9.97876 16.5672 9.97876 15.7422H6.97876C6.97876 16.5672 7.64626 17.2422 8.47876 17.2422ZM2.47876 4.31219L3.53626 3.25469L15.5213 15.2397L14.4638 16.2972L13.1588 14.9922H3.53626C2.86876 14.9922 2.53876 14.1822 3.01126 13.7097L3.97876 12.7422V8.99219C3.97876 8.03969 4.19626 7.16969 4.58626 6.41969L2.47876 4.31219Z" fill="#3F7BDA"/>
</svg>
