<svg xmlns="http://www.w3.org/2000/svg" fill="none" viewBox="0 0 18 19"><path fill="#3F7BDA" fill-rule="evenodd" d="M12.979 8.992c0-2.302-1.23-4.23-3.375-4.74v-.51c0-.622-.503-1.125-1.125-1.125-.623 0-1.125.503-1.125 1.125v.51a4.28 4.28 0 0 0-.439.144l-.079.029 6.143 6.142V8.992zm-4.5 8.25c.825 0 1.5-.675 1.5-1.5h-3a1.5 1.5 0 0 0 1.5 1.5zm-6-12.93 1.057-1.057L15.521 15.24l-1.057 1.057-1.305-1.305H3.536c-.667 0-.997-.81-.525-1.282l.968-.968v-3.75c0-.952.217-1.822.607-2.572L2.48 4.312z" clip-rule="evenodd"/></svg>