<svg xmlns="http://www.w3.org/2000/svg" fill="none" viewBox="0 0 36 37"><circle cx="18" cy="18.43" r="18" fill="#F0F3FF"/><path fill="#183C75" d="M24.797 14.947a7.446 7.446 0 0 0 1.74-1.807 6.586 6.586 0 0 1-2.008.535 3.435 3.435 0 0 0 1.54-1.942c-.67.402-1.44.703-2.21.87a3.516 3.516 0 0 0-2.578-1.104 3.515 3.515 0 0 0-3.515 3.515c0 .268.033.536.1.804a10.2 10.2 0 0 1-7.266-3.683 3.42 3.42 0 0 0-.468 1.775c0 1.205.602 2.276 1.573 2.913-.569-.034-1.138-.168-1.607-.436v.034a3.52 3.52 0 0 0 2.813 3.448 3.923 3.923 0 0 1-.904.134c-.235 0-.436-.033-.67-.067a3.499 3.499 0 0 0 3.281 2.445 7.068 7.068 0 0 1-4.353 1.506 6.52 6.52 0 0 1-.837-.067c1.54 1.005 3.382 1.574 5.391 1.574 6.462 0 9.978-5.324 9.978-9.978v-.469z"/></svg>