<svg xmlns="http://www.w3.org/2000/svg" fill="none" viewBox="0 0 151 43"><path fill="#1F3D73" d="M22.423 9.316V6.72H5.12v6.103h7.457L4.33 24.974v2.39H22.8v-6.601h-8.247l7.87-11.448zM33.642 6.703h-7.75v20.644h7.75V6.703zM50.875 6.222c-2.182-.034-4.776.705-6.529 2.75l-.343-2.251h-6.839v20.644h7.629V16.5c0-2.716 1.718-3.97 3.556-3.97 1.427 0 2.887.876 2.887 3.42v11.414h7.732V15.917c0-7.357-3.729-9.643-8.093-9.695zM79.656 4.005c-.67.877-1.512 1.925-2.217 2.836a12.57 12.57 0 0 0-4.278-.79c-6.409 0-11.53 4.09-11.53 10.57 0 6.395 4.571 10.4 11.53 10.4 2.8 0 3.728 1.255 3.728 2.75 0 2.011-1.804 2.974-3.814 2.974-2.045 0-3.986-.705-3.9-3.919h-7.251c-.412 6.308 3.728 10.159 11.15 10.159 5.912 0 11.736-2.51 11.736-9.197 0-1.134-.258-4.056-4.072-6.222 2.388-1.719 3.728-4.263 3.763-6.858a7.665 7.665 0 0 0-1.976-5.552l2.697-3.18-5.566-3.97zM73.16 20.678c-2.268 0-4.02-1.581-4.02-4.056 0-2.768 1.752-4.263 4.02-4.263s3.9 1.925 3.9 4.263c0 2.75-1.838 4.056-3.9 4.056zM115.136 4.005c-.67.877-1.512 1.925-2.216 2.836a12.573 12.573 0 0 0-4.279-.79c-6.408 0-11.529 4.09-11.529 10.57 0 6.395 4.571 10.4 11.529 10.4 2.801 0 3.729 1.255 3.729 2.75 0 2.011-1.804 2.974-3.815 2.974-2.061 0-3.986-.705-3.9-3.919h-7.25c-.413 6.308 3.728 10.159 11.15 10.159 5.911 0 11.736-2.51 11.736-9.197 0-1.134-.258-4.056-4.072-6.222 2.388-1.719 3.728-4.263 3.762-6.858a7.662 7.662 0 0 0-1.975-5.552l2.68-3.18-5.55-3.97zm-6.495 16.673c-2.268 0-4.02-1.581-4.02-4.056-.017-2.768 1.752-4.263 4.02-4.263s3.901 1.925 3.901 4.263c0 2.75-1.839 4.056-3.901 4.056zM142.025 23.566c2.389-1.719 3.729-4.263 3.763-6.858a7.663 7.663 0 0 0-1.976-5.552l2.681-3.18-5.55-3.97c-.67.876-1.512 1.924-2.217 2.835a12.563 12.563 0 0 0-4.278-.79c-6.409 0-11.529 4.09-11.529 10.57 0 6.395 4.57 10.4 11.529 10.4 2.801 0 3.729 1.255 3.729 2.75 0 2.011-1.805 2.974-3.815 2.974-2.062 0-3.986-.705-3.9-3.919h-7.251c-.412 6.308 3.729 10.159 11.151 10.159 5.911 0 11.735-2.51 11.735-9.197 0-1.134-.257-4.056-4.072-6.222zm-7.577-2.888c-2.268 0-4.021-1.581-4.021-4.056 0-2.768 1.753-4.263 4.021-4.263s3.9 1.925 3.9 4.263c0 2.75-1.838 4.056-3.9 4.056z"/><path fill="#2F73EA" d="M90.617 20.507c5.172 0 5.207-8.079 0-8.079-5.171 0-5.085 8.079 0 8.079z" opacity=".99"/></svg>